<?xml version="1.0" standalone="no"?>
<!DOCTYPE svg PUBLIC "-//W3C//DTD SVG 20010904//EN"
 "http://www.w3.org/TR/2001/REC-SVG-20010904/DTD/svg10.dtd">
<svg version="1.0" xmlns="http://www.w3.org/2000/svg"
 width="310.000000pt" height="310.000000pt" viewBox="0 0 310.000000 310.000000"
 preserveAspectRatio="xMidYMid meet">

<g transform="translate(0.000000,310.000000) scale(0.100000,-0.100000)"
fill="#000000" stroke="none">
<path d="M1341 2679 c-78 -13 -222 -64 -314 -110 -306 -154 -531 -450 -601
-792 -21 -103 -21 -351 0 -454 80 -388 353 -710 714 -843 l80 -29 0 49 0 50
-39 -6 c-57 -9 -118 26 -131 77 -25 91 64 158 146 110 20 -12 38 -21 39 -19 1
2 12 22 24 45 l21 42 -50 16 c-114 38 -244 148 -293 249 -87 176 -45 369 112
519 l77 74 -25 31 c-98 117 -181 354 -181 514 0 122 26 158 115 158 78 0 129
-36 207 -145 72 -101 116 -210 154 -377 9 -43 18 -78 19 -78 1 0 17 8 36 18
36 18 163 24 225 10 l31 -7 23 102 c30 134 54 204 101 302 73 153 122 199 209
197 38 0 49 -6 76 -35 78 -85 53 -291 -67 -546 -27 -57 -49 -107 -49 -112 0
-4 8 -10 18 -13 26 -9 122 -90 143 -122 59 -90 89 -277 63 -400 -33 -160 -159
-293 -327 -348 -16 -5 -16 -8 -2 -43 9 -21 21 -91 27 -155 12 -132 17 -144 44
-130 11 6 57 29 104 52 307 152 533 449 604 793 21 103 21 352 0 454 -70 342
-295 638 -600 792 -98 49 -236 96 -324 110 -77 13 -332 12 -409 0z"/>
</g>
</svg>
